HIERARCHY
ROOT hip
{
  OFFSET 0 0 0
  CHANNELS 6 Xposition Yposition Zposition Zrotation Yrotation Xrotation
  JOINT abdomen
  {
    OFFSET 0 20.6881 -0.73152
    CHANNELS 3 Zrotation Xrotation Yrotation
    JOINT chest
    {
      OFFSET 0 11.7043 -0.48768
      CHANNELS 3 Zrotation Xrotation Yrotation
      JOINT neck
      {
        OFFSET 0 22.1894 -2.19456
        CHANNELS 3 Zrotation Xrotation Yrotation
        JOINT head
        {
          OFFSET -0.24384 7.07133 1.2192
          CHANNELS 3 Zrotation Xrotation Yrotation
          JOINT leftEye
          {
            OFFSET 4.14528 8.04674 8.04672
            CHANNELS 3 Zrotation Xrotation Yrotation
            End Site
            {
              OFFSET 1 0 0
            }
          }
          JOINT rightEye
          {
            OFFSET -3.6576 8.04674 8.04672
            CHANNELS 3 Zrotation Xrotation Yrotation
            End Site
            {
              OFFSET 1 0 0
            }
          }
        }
      }
      JOINT rCollar
      {
        OFFSET -2.68224 19.2634 -4.8768
        CHANNELS 3 Zrotation Xrotation Yrotation
        JOINT rShldr
        {
          OFFSET -8.77824 -1.95073 1.46304
          CHANNELS 3 Zrotation Xrotation Yrotation
          JOINT rForeArm
          {
            OFFSET -28.1742 -1.7115 0.48768
            CHANNELS 3 Zrotation Xrotation Yrotation
            JOINT rHand
            {
              OFFSET -22.5879 0.773209 7.07136
              CHANNELS 3 Zrotation Xrotation Yrotation
              JOINT rThumb1
              {
                OFFSET -1.2192 -0.487915 3.41376
                CHANNELS 3 Zrotation Xrotation Yrotation
                JOINT rThumb2
                {
                  OFFSET -3.37035 -0.52449 3.41376
                  CHANNELS 3 Zrotation Xrotation Yrotation
                  End Site
                  {
                    OFFSET -1.78271 -1.18214 1.43049
                  }
                }
              }
              JOINT rIndex1
              {
                OFFSET -7.75947 0.938293 5.60832
                CHANNELS 3 Zrotation Xrotation Yrotation
                JOINT rIndex2
                {
                  OFFSET -2.54057 -0.884171 1.56538
                  CHANNELS 3 Zrotation Xrotation Yrotation
                  End Site
                  {
                    OFFSET -1.62519 -0.234802 1.16502
                  }
                }
              }
              JOINT rMid1
              {
                OFFSET -8.24714 1.18213 3.41376
                CHANNELS 3 Zrotation Xrotation Yrotation
                JOINT rMid2
                {
                  OFFSET -3.10165 -0.590103 1.0647
                  CHANNELS 3 Zrotation Xrotation Yrotation
                  End Site
                  {
                    OFFSET -2.48547 -0.328903 0.83742
                  }
                }
              }
              JOINT rRing1
              {
                OFFSET -8.82822 0.546677 1.51678
                CHANNELS 3 Zrotation Xrotation Yrotation
                JOINT rRing2
                {
                  OFFSET -2.60934 -0.819778 -0.0198488
                  CHANNELS 3 Zrotation Xrotation Yrotation
                  End Site
                  {
                    OFFSET -2.33842 -0.294052 0.168128
                  }
                }
              }
              JOINT rPinky1
              {
                OFFSET -8.27202 -0.0477905 -0.4584
                CHANNELS 3 Zrotation Xrotation Yrotation
                JOINT rPinky2
                {
                  OFFSET -1.82734 -0.647385 -0.700984
                  CHANNELS 3 Zrotation Xrotation Yrotation
                  End Site
                  {
                    OFFSET -1.69225 -0.51767 -0.607171
                  }
                }
              }
            }
          }
        }
      }
      JOINT lCollar
      {
        OFFSET 2.68224 19.2634 -4.8768
        CHANNELS 3 Zrotation Xrotation Yrotation
        JOINT lShldr
        {
          OFFSET 8.77824 -1.95073 1.46304
          CHANNELS 3 Zrotation Xrotation Yrotation
          JOINT lForeArm
          {
            OFFSET 28.1742 -1.7115 0.48768
            CHANNELS 3 Zrotation Xrotation Yrotation
            JOINT lHand
            {
              OFFSET 22.5879 0.773209 7.07136
              CHANNELS 3 Zrotation Xrotation Yrotation
              JOINT lThumb1
              {
                OFFSET 1.2192 -0.487915 3.41376
                CHANNELS 3 Zrotation Xrotation Yrotation
                JOINT lThumb2
                {
                  OFFSET 3.37035 -0.52449 3.41376
                  CHANNELS 3 Zrotation Xrotation Yrotation
                  End Site
                  {
                    OFFSET 1.78271 -1.18214 1.43049
                  }
                }
              }
              JOINT lIndex1
              {
                OFFSET 7.75947 0.938293 5.60832
                CHANNELS 3 Zrotation Xrotation Yrotation
                JOINT lIndex2
                {
                  OFFSET 2.54057 -0.884171 1.56538
                  CHANNELS 3 Zrotation Xrotation Yrotation
                  End Site
                  {
                    OFFSET 1.62519 -0.234802 1.16502
                  }
                }
              }
              JOINT lMid1
              {
                OFFSET 8.24714 1.18213 3.41376
                CHANNELS 3 Zrotation Xrotation Yrotation
                JOINT lMid2
                {
                  OFFSET 3.10165 -0.590103 1.0647
                  CHANNELS 3 Zrotation Xrotation Yrotation
                  End Site
                  {
                    OFFSET 2.48547 -0.328903 0.83742
                  }
                }
              }
              JOINT lRing1
              {
                OFFSET 8.82822 0.546677 1.51678
                CHANNELS 3 Zrotation Xrotation Yrotation
                JOINT lRing2
                {
                  OFFSET 2.60934 -0.819778 -0.0198488
                  CHANNELS 3 Zrotation Xrotation Yrotation
                  End Site
                  {
                    OFFSET 2.33842 -0.294052 0.168128
                  }
                }
              }
              JOINT lPinky1
              {
                OFFSET 8.27202 -0.0477905 -0.4584
                CHANNELS 3 Zrotation Xrotation Yrotation
                JOINT lPinky2
                {
                  OFFSET 1.82734 -0.647385 -0.700984
                  CHANNELS 3 Zrotation Xrotation Yrotation
                  End Site
                  {
                    OFFSET 1.69225 -0.51767 -0.607171
                  }
                }
              }
            }
          }
        }
      }
    }
  }
  JOINT rButtock
  {
    OFFSET -8.77824 4.35084 1.2192
    CHANNELS 3 Zrotation Xrotation Yrotation
    JOINT rThigh
    {
      OFFSET 0 -1.70687 -2.19456
      CHANNELS 3 Zrotation Xrotation Yrotation
      JOINT rShin
      {
        OFFSET 0 -36.8199 0.73152
        CHANNELS 3 Zrotation Xrotation Yrotation
        JOINT rFoot
        {
          OFFSET 0.73152 -45.1104 -5.12064
          CHANNELS 3 Zrotation Xrotation Yrotation
          End Site
          {
            OFFSET -1.1221 -3.69964 12.103
          }
        }
      }
    }
  }
  JOINT lButtock
  {
    OFFSET 8.77824 4.35084 1.2192
    CHANNELS 3 Zrotation Xrotation Yrotation
    JOINT lThigh
    {
      OFFSET 0 -1.70687 -2.19456
      CHANNELS 3 Zrotation Xrotation Yrotation
      JOINT lShin
      {
        OFFSET 0 -36.8199 0.73152
        CHANNELS 3 Zrotation Xrotation Yrotation
        JOINT lFoot
        {
          OFFSET -0.73152 -45.1104 -5.12064
          CHANNELS 3 Zrotation Xrotation Yrotation
          End Site
          {
            OFFSET 1.1221 -3.69964 12.103
          }
        }
      }
    }
  }
}
MOTION
Frames:	6
Frame Time:	0.00833333
120.241 83.2065 144.261 2.8293 -127.065 -361.078 -2.76304 12.9758 4.1744 4.76218 -5.93769 1.27836 -1.4322 10.9613 6.833 0.683861 -32.1927 14.0804 -0.0 0.0 0.0 -0.0 0.0 0.0 1.00895e-13 -3.1978e-13 -1.39006e-13 75.1496 8.01349 0.771295 -11.2204 -4.91718 20.1103 -0.114981 -9.61654 -1.36451 -4.10309e-11 4.24846e-10 9.39974e-10 -6.79779e-11 7.39404e-10 1.62078e-09 -4.10266e-11 4.24846e-10 9.39954e-10 7.73091 5.47488 0.417314 -4.10316e-11 4.24843e-10 9.39968e-10 2.90554 0.965183 0.102902 -4.1033e-11 4.2484e-10 9.39972e-10 10.2786 0.731801 0.0259123 -4.10391e-11 4.24844e-10 9.3998e-10 2.22167 -0.733487 -0.20892 1.00864e-13 -3.19792e-13 -1.39237e-13 -75.2545 29.2501 -7.25532 -20.4365 -13.569 39.7566 0.0422544 -5.88332 0.82975 -1.21873e-09 -4.49397e-10 1.33735e-10 -2.1118e-09 -7.75357e-10 2.25075e-10 -1.21877e-09 -4.49414e-10 1.33769e-10 -7.73091 5.47488 -0.417314 -1.21873e-09 -4.49401e-10 1.33736e-10 -2.90554 0.965183 -0.102902 -1.21873e-09 -4.494e-10 1.33732e-10 -10.2786 0.731801 -0.0259123 -1.21872e-09 -4.49396e-10 1.33722e-10 -2.22167 -0.733487 0.20892 -2.03217e-16 0.0 -3.88251e-19 -5.85768 -30.2118 2.17145 -0.0570604 13.4094 0.453746 -1.30076 -3.84057 -5.23953 2.03217e-16 0.0 3.88251e-19 -4.4081 4.96693 0.380921 -0.0735854 18.7014 -0.858863 -2.53543 -13.9269 -12.4984
119.671 83.1477 143.853 2.5577 -127.071 -360.775 -2.65823 12.995 4.32206 4.69595 -5.95877 1.32021 -1.41526 11.1696 6.9321 0.385786 -32.399 14.1873 -0.0 0.0 0.0 -0.0 0.0 0.0 2.37277e-14 -2.89503e-13 1.73073e-13 75.0466 7.90742 0.82637 -11.3281 -4.98918 20.3159 -0.11345 -9.55095 -1.35504 -3.34171e-10 -2.08031e-09 2.12078e-09 -5.88281e-10 -3.59362e-09 3.66494e-09 -3.34165e-10 -2.08032e-09 2.12076e-09 7.73091 5.47488 0.417314 -3.34171e-10 -2.08032e-09 2.12078e-09 2.90554 0.965183 0.102902 -3.34172e-10 -2.08032e-09 2.12078e-09 10.2786 0.731801 0.0259123 -3.3418e-10 -2.08032e-09 2.12079e-09 2.22167 -0.733487 -0.20892 2.36934e-14 -2.89507e-13 1.7285e-13 -75.3954 29.1594 -6.80313 -20.4544 -13.5897 39.8093 0.0488743 -6.33223 0.893551 -1.83975e-09 -9.40519e-10 6.8909e-10 -3.18884e-09 -1.62719e-09 1.18691e-09 -1.83978e-09 -9.40533e-10 6.89124e-10 -7.73091 5.47488 -0.417314 -1.83975e-09 -9.40522e-10 6.89093e-10 -2.90554 0.965183 -0.102902 -1.83975e-09 -9.40522e-10 6.8909e-10 -10.2786 0.731801 -0.0259123 -1.83974e-09 -9.40519e-10 6.89082e-10 -2.22167 -0.733487 0.20892 -2.03217e-16 0.0 -3.88251e-19 -5.8636 -30.5431 1.3902 -0.0617048 13.6564 0.45044 -0.843157 -2.31656 -2.87256 2.03217e-16 0.0 3.88251e-19 -4.458 5.42515 0.0245204 -0.0745123 18.4029 -0.872693 -2.39775 -13.763 -12.2265
119.199 83.096 143.423 2.812 -127.007 -360.804 -2.55771 12.9907 4.44767 4.6353 -5.96231 1.35493 -1.40128 11.3448 7.04058 0.089303 -32.5292 14.314 -0.0 0.0 0.0 -0.0 0.0 0.0 -4.62095e-14 -2.23011e-13 4.12195e-13 74.9374 7.80174 0.891523 -11.4339 -5.0599 20.5188 -0.109911 -9.40555 -1.33401 -5.57187e-10 -3.8431e-09 2.79427e-09 -9.83849e-10 -6.64286e-09 4.83142e-09 -5.57179e-10 -3.8431e-09 2.79426e-09 7.73091 5.47488 0.417314 -5.57186e-10 -3.8431e-09 2.79426e-09 2.90554 0.965183 0.102902 -5.57187e-10 -3.84311e-09 2.79427e-09 10.2786 0.731801 0.0259123 -5.57196e-10 -3.84311e-09 2.79428e-09 2.22167 -0.733487 -0.20892 -4.62506e-14 -2.23006e-13 4.11979e-13 -75.583 29.0024 -6.34767 -20.4444 -13.5764 39.7855 0.0559134 -6.74792 0.952782 -2.14919e-09 -1.22154e-09 1.05531e-09 -3.72569e-09 -2.11513e-09 1.82184e-09 -2.14921e-09 -1.22155e-09 1.05534e-09 -7.73091 5.47488 -0.417314 -2.14919e-09 -1.22154e-09 1.05531e-09 -2.90554 0.965183 -0.102902 -2.14919e-09 -1.22154e-09 1.05531e-09 -10.2786 0.731801 -0.0259123 -2.14918e-09 -1.22154e-09 1.05531e-09 -2.22167 -0.733487 0.20892 -2.03217e-16 0.0 -3.88251e-19 -5.87399 -30.8637 0.609196 -0.0682265 14.0866 0.448444 -0.519251 -0.518763 -0.587017 2.03217e-16 0.0 3.88251e-19 -4.52921 5.86572 -0.349705 -0.0758843 18.1431 -0.887077 -2.24446 -13.5739 -11.9137
118.686 83.0399 142.986 3.0297 -126.844 -360.901 -2.47736 12.9778 4.56385 4.58181 -5.92065 1.38407 -1.34964 11.392 7.13447 -0.185038 -32.4296 14.4159 -0.0 0.0 0.0 -0.0 0.0 0.0 -7.31088e-14 -1.21661e-13 4.26294e-13 74.8335 7.73673 1.00241 -11.4927 -5.09926 20.6324 -0.105382 -9.2188 -1.30703 -5.38697e-10 -3.61104e-09 2.41086e-09 -9.522e-10 -6.24168e-09 4.16902e-09 -5.38689e-10 -3.61104e-09 2.41085e-09 7.73091 5.47488 0.417314 -5.38696e-10 -3.61104e-09 2.41086e-09 2.90554 0.965183 0.102902 -5.38695e-10 -3.61105e-09 2.41087e-09 10.2786 0.731801 0.0259123 -5.38706e-10 -3.61105e-09 2.41088e-09 2.22167 -0.733487 -0.20892 -7.31519e-14 -1.21652e-13 4.26095e-13 -75.7834 28.7373 -6.04498 -20.3434 -13.4499 39.5203 0.0592427 -6.92867 0.978583 -1.84412e-09 -1.10795e-09 9.3722e-10 -3.19698e-09 -1.91904e-09 1.61867e-09 -1.84413e-09 -1.10795e-09 9.37249e-10 -7.73091 5.47488 -0.417314 -1.84412e-09 -1.10795e-09 9.37227e-10 -2.90554 0.965183 -0.102902 -1.84413e-09 -1.10795e-09 9.37225e-10 -10.2786 0.731801 -0.0259123 -1.84411e-09 -1.10795e-09 9.3722e-10 -2.22167 -0.733487 0.20892 -2.03217e-16 0.0 -3.88251e-19 -5.85456 -31.0478 0.124428 -0.0739984 14.5429 0.450269 -0.356229 0.916122 1.28602 2.03217e-16 0.0 3.88251e-19 -4.6062 6.29411 -0.7428 -0.0775468 18.0303 -0.899633 -2.10174 -13.4175 -11.5818
118.084 82.962 142.555 2.8429 -126.581 -360.808 -2.45706 12.9472 4.71219 4.52298 -5.80558 1.41666 -1.21702 11.2278 7.19715 -0.452105 -31.9736 14.4534 -0.0 0.0 0.0 -0.0 0.0 0.0 -2.79562e-14 6.15534e-14 3.61652e-14 74.7385 7.75326 1.19478 -11.4794 -5.09018 20.6068 -0.0999005 -8.98371 -1.27311 -7.79569e-11 1.97681e-10 1.23446e-10 -1.3894e-10 3.45926e-10 2.1201e-10 -7.79505e-11 1.97677e-10 1.23435e-10 7.73091 5.47488 0.417314 -7.79558e-11 1.97676e-10 1.23444e-10 2.90554 0.965183 0.102902 -7.79534e-11 1.97671e-10 1.23452e-10 10.2786 0.731801 0.0259123 -7.79645e-11 1.97674e-10 1.23461e-10 2.22167 -0.733487 -0.20892 -2.79919e-14 6.15626e-14 3.60025e-14 -75.985 28.3325 -6.00044 -20.1069 -13.1528 38.9198 0.0562647 -6.76495 0.955216 -4.19116e-10 -2.83445e-10 -6.92127e-11 -7.26369e-10 -4.90801e-10 -1.21632e-10 -4.19122e-10 -2.83449e-10 -6.9188e-11 -7.73091 5.47488 -0.417314 -4.19117e-10 -2.83446e-10 -6.92072e-11 -2.90554 0.965183 -0.102902 -4.19124e-10 -2.83446e-10 -6.92079e-11 -10.2786 0.731801 -0.0259123 -4.19112e-10 -2.83447e-10 -6.92129e-11 -2.22167 -0.733487 0.20892 -2.03217e-16 0.0 -3.88251e-19 -5.81034 -31.0733 0.0690435 -0.0789351 15.0284 0.457849 -0.281878 1.85021 2.697 2.03217e-16 0.0 3.88251e-19 -4.74146 6.71751 -1.15879 -0.0794565 18.0979 -0.910128 -1.96627 -13.346 -11.1706
117.509 82.905 142.104 2.7768 -126.28 -360.725 -2.47617 12.8954 4.87316 4.46213 -5.6388 1.44898 -1.03516 10.9223 7.24479 -0.716489 -31.272 14.461 -0.0 0.0 0.0 -0.0 0.0 0.0 6.36625e-14 3.11567e-13 -6.30871e-13 74.6454 7.81972 1.44092 -11.4223 -5.0518 20.4973 -0.0933358 -8.6855 -1.23018 6.81949e-10 6.49913e-09 -3.54136e-09 1.20336e-09 1.1245e-08 -6.12828e-09 6.81951e-10 6.49913e-09 -3.54137e-09 7.73091 5.47488 0.417314 6.81949e-10 6.49913e-09 -3.54136e-09 2.90554 0.965183 0.102902 6.81954e-10 6.49913e-09 -3.54135e-09 10.2786 0.731801 0.0259123 6.81943e-10 6.49913e-09 -3.54134e-09 2.22167 -0.733487 -0.20892 6.36384e-14 3.11573e-13 -6.30986e-13 -76.2102 27.8182 -6.1083 -19.767 -12.729 38.0923 0.0498139 -6.38293 0.900781 1.82271e-09 1.06453e-09 -1.69812e-09 3.16053e-09 1.84461e-09 -2.93886e-09 1.82271e-09 1.06453e-09 -1.69811e-09 -7.73091 5.47488 -0.417314 1.82271e-09 1.06453e-09 -1.69812e-09 -2.90554 0.965183 -0.102902 1.82271e-09 1.06453e-09 -1.69812e-09 -10.2786 0.731801 -0.0259123 1.82272e-09 1.06453e-09 -1.69813e-09 -2.22167 -0.733487 0.20892 -2.03217e-16 0.0 -3.88251e-19 -5.75013 -31.0055 0.269533 -0.0844349 15.6121 0.469507 -0.252504 2.60729 3.81311 2.03217e-16 0.0 3.88251e-19 -4.92398 7.13088 -1.59603 -0.081563 18.2868 -0.919737 -1.82686 -13.3159 -10.6901
